<svg xmlns="http://www.w3.org/2000/svg" width="59.97" height="60" viewBox="0 0 59.97 60">
  <defs>
    <style>
      .cls-1 {
        fill: #54cff0;
        fill-rule: evenodd;
      }
    </style>
  </defs>
  <path class="cls-1" d="M2114.72,3765.43v-8.85c0-1.32-.42-1.74-1.73-1.74h-0.38c-3.51-.01-7.14-0.01-10.72,0a2.745,2.745,0,0,0-.95.15,1.08,1.08,0,0,0-.74,1.07,1.134,1.134,0,0,0,.64,1.15,2.6,2.6,0,0,0,1,.17c2.44,0.01,4.91.01,7.31,0.01h2.91a0.137,0.137,0,0,1,.14.14v31.76c0,2.97-1.57,4.54-4.55,4.54h-50.19a0.143,0.143,0,0,1-.14-0.14v-5.32a0.137,0.137,0,0,1,.14-0.14h6.06c14.05,0,34.18,0,48.47-.01a3.371,3.371,0,0,0,1.09-.15,1.114,1.114,0,0,0,.76-1.13,1.065,1.065,0,0,0-.75-1.12,3.291,3.291,0,0,0-1.08-.14c-14.26-.01-34.13-0.01-48.39-0.01h-6.17a0.137,0.137,0,0,1-.14-0.14v-27.97a0.142,0.142,0,0,1,.13-0.14c0.08,0,.16-0.01.24-0.01,0.16-.01.31-0.02,0.46-0.02h10.08a1.249,1.249,0,0,0,1.27-.89,1.061,1.061,0,0,0-.36-1.3,2.575,2.575,0,0,0-1.26-.35c-3.16-.02-6.38-0.02-9.5-0.01h-1.94c-1.23,0-1.69.45-1.69,1.65v38.19c0,1.24.42,1.66,1.67,1.66h20.99a0.137,0.137,0,0,1,.14.14v5.88a0.137,0.137,0,0,1-.14.14h-4.69c-1.05,0-2.11,0-3.17.01a1.212,1.212,0,0,0-1.35,1.18,1.228,1.228,0,0,0,1.32,1.3h30.23a1.735,1.735,0,0,0,1.25-.4,1.189,1.189,0,0,0,.31-0.87,1.29,1.29,0,0,0-1.54-1.22h-7.68a0.137,0.137,0,0,1-.14-0.14v-5.88a0.137,0.137,0,0,1,.14-0.14h15.65a6.9,6.9,0,0,0,4.1-1.12,6.681,6.681,0,0,0,2.9-5.89C2114.71,3781.37,2114.71,3773.26,2114.72,3765.43Zm-25.38,36.9a0.151,0.151,0,0,1-.14.14h-8.95a0.143,0.143,0,0,1-.14-0.14v-5.81a0.143,0.143,0,0,1,.14-0.14h8.95a0.151,0.151,0,0,1,.14.14v5.81Zm-14.99-21.79h16.41a6.193,6.193,0,0,0,4.48-1.78,6.073,6.073,0,0,0,1.68-4.41c-0.06-3.16-.05-6.38-0.03-9.48,0-1.37.01-2.74,0.01-4.11V3746.7c0-1.29-.4-1.7-1.63-1.7-6.96-.01-14.04-0.01-21.04,0-1.3,0-1.68.38-1.68,1.71v32.06C2072.55,3780.09,2073.01,3780.54,2074.35,3780.54Zm20.07-11.73a1.045,1.045,0,0,1-.21.75,0.958,0.958,0,0,1-.71.2h-0.02c-4.5-.02-9.07-0.02-13.49-0.01-1.34,0-2.67-.01-4,0h-0.7a0.143,0.143,0,0,1-.14-0.14v-17.6a0.137,0.137,0,0,1,.14-0.14h4.61c4.47,0,9.08,0,13.62-.02h0.01a0.919,0.919,0,0,1,.69.2,1.036,1.036,0,0,1,.2.73C2094.4,3758.12,2094.4,3763.51,2094.42,3768.81Zm-19.31-21.19a0.137,0.137,0,0,1,.14-0.14h18.2a1.1,1.1,0,0,1,.86.28,3.448,3.448,0,0,1,.02,1.25,0.915,0.915,0,0,1-.73.3c-0.75.01-1.51,0.01-2.26,0.01h-16.09a0.143,0.143,0,0,1-.14-0.14v-1.56Zm0.17,24.86a0.878,0.878,0,0,1,.68-0.2c2.17,0.02,4.37.02,6.51,0.02h4.56c2.1,0,4.28,0,6.42-.02a1.066,1.066,0,0,1,.8.24,0.814,0.814,0,0,1,.16.71,7.478,7.478,0,0,0-.01.82c0,0.26,0,.54-0.02.81a3.3,3.3,0,0,1-3.37,3.16c-3.06.01-6.17,0.01-9.18,0.01h-6a0.612,0.612,0,0,1-.73-0.73c0.02-1.22.03-2.67-.01-4.14A0.909,0.909,0,0,1,2075.28,3772.48Zm9.46,17.13a1.276,1.276,0,0,0-.93.39,1.206,1.206,0,0,0-.34.88,1.265,1.265,0,0,0,1.29,1.21,1.233,1.233,0,0,0,1.23-1.25,1.215,1.215,0,0,0-1.25-1.23h0Z" transform="translate(-2054.75 -3745)"/>
</svg>
