<svg xmlns="http://www.w3.org/2000/svg" width="59.93" height="69.03" viewBox="0 0 59.93 69.03">
  <defs>
    <style>
      .cls-1 {
        fill: #54cff0;
        fill-rule: evenodd;
      }
    </style>
  </defs>
  <path class="cls-1" d="M1870.74,4044.12a27.659,27.659,0,0,1,19.74-7.58h0.26a0.24,0.24,0,0,0,.23-0.23v-3.37l5.62,5.61-5.66,5.73v-3.29a0.238,0.238,0,0,0-.22-0.23,23.107,23.107,0,0,0-17.35,6.61,21.623,21.623,0,0,0-6.73,16.09,0.226,0.226,0,0,0,.23.23h2.09a0.249,0.249,0,0,0,.24-0.23,20.318,20.318,0,0,1,19.08-20.04v0.78c0,0.75,0,1.46.01,2.17a1.8,1.8,0,0,0,1.16,1.81,1.966,1.966,0,0,0,2.1-.53c0.08-.07.16-0.15,0.24-0.23l1.15-1.14q3.51-3.45,7-6.91c0.13-.12.24-0.25,0.37-0.38,0.05-.06.11-0.13,0.17-0.19a0.233,0.233,0,0,0,.01-0.32c-0.06-.05-0.11-0.11-0.16-0.16-0.1-.12-0.2-0.22-0.3-0.32-0.98-.96-1.96-1.93-2.93-2.9q-2.685-2.625-5.35-5.27a2.048,2.048,0,0,0-2.33-.71,1.977,1.977,0,0,0-1.14,2.13v2.7a29.966,29.966,0,0,0-20.2,9.03,29.071,29.071,0,0,0-8.42,20.51,0.239,0.239,0,0,0,.24.23h0.48c0.14,0,.28.01,0.41,0.01,0.21,0,.41-0.01.6-0.01a3.517,3.517,0,0,0,.45-0.03,1.942,1.942,0,0,0,.24-0.02,0.222,0.222,0,0,0,.22-0.22A26.684,26.684,0,0,1,1870.74,4044.12Zm48.79,19.27a0.284,0.284,0,0,0-.17-0.07h-2.21a0.235,0.235,0,0,0-.24.23,26.572,26.572,0,0,1-8.46,19.36,27.528,27.528,0,0,1-19.96,7.52,0.236,0.236,0,0,0-.16.07,0.2,0.2,0,0,0-.07.16v3.21l-5.6-5.43,5.64-5.58v3.16a0.238,0.238,0,0,0,.22.23c0.35,0.01.69,0.02,1.04,0.02a23.063,23.063,0,0,0,16.18-6.54,22.064,22.064,0,0,0,6.9-16.21,0.233,0.233,0,0,0-.24-0.22h-2.16a0.226,0.226,0,0,0-.23.23,19.663,19.663,0,0,1-5.63,13.8,20.058,20.058,0,0,1-13.41,6.23c-0.01-.01-0.01-0.03-0.02-0.04v-0.86a20.309,20.309,0,0,0-.05-2.06,2.413,2.413,0,0,0-.59-1.43,1.568,1.568,0,0,0-1.11-.5,2.249,2.249,0,0,0-1.56.72q-3.5,3.45-6.98,6.89l-1.41,1.39c-0.11.11-.21,0.22-0.33,0.34-0.05.06-.11,0.12-0.17,0.19a0.223,0.223,0,0,0,0,.32l2.37,2.34c2.23,2.21,4.55,4.49,6.83,6.72a1.683,1.683,0,0,0,1.17.47c0.04,0,.08-0.01.12-0.01a1.59,1.59,0,0,0,1.16-.59,2.968,2.968,0,0,0,.51-1.53c0.05-.73.04-1.47,0.03-2.19,0-.22-0.01-0.45-0.01-0.68a29.935,29.935,0,0,0,20.25-9.07,29.153,29.153,0,0,0,8.42-20.42A0.261,0.261,0,0,0,1919.53,4063.39Zm-29.94-12.56h-0.01c-6.87,0-12.76,5.61-12.86,12.25a12.842,12.842,0,0,0,12.87,13.12h0.01a12.96,12.96,0,0,0,9.05-3.71,12.216,12.216,0,0,0,3.81-8.8A12.77,12.77,0,0,0,1889.59,4050.83Zm7.22,5.57a9.961,9.961,0,0,1,2.97,7.17,10.125,10.125,0,0,1-10.18,9.96h-0.01a10.06,10.06,0,0,1-10.16-10.13,9.784,9.784,0,0,1,2.98-7.03,10.251,10.251,0,0,1,7.2-2.92A10.142,10.142,0,0,1,1896.81,4056.4Zm-23.15,24.48-1.71-1.62a0.243,0.243,0,0,0-.32,0l-1.7,1.53a0.236,0.236,0,0,0-.07.16,0.224,0.224,0,0,0,.06.17l1.74,1.86a0.214,0.214,0,0,0,.17.08h0a0.229,0.229,0,0,0,.17-0.08l1.67-1.78A0.233,0.233,0,0,0,1873.66,4080.88Zm31.89-34.76,1.75,1.58a0.2,0.2,0,0,0,.16.07,0.22,0.22,0,0,0,.15-0.06l1.6-1.44a0.216,0.216,0,0,0,.02-0.32l-1.69-1.94a0.25,0.25,0,0,0-.18-0.08,0.229,0.229,0,0,0-.17.08l-1.65,1.78A0.235,0.235,0,0,0,1905.55,4046.12Zm-37.4,27.41-0.92-2.15a0.234,0.234,0,0,0-.29-0.13l-2.29.82a0.221,0.221,0,0,0-.13.12,0.228,0.228,0,0,0-.01.18l0.99,2.38a0.237,0.237,0,0,0,.13.13,0.277,0.277,0,0,0,.09.01,0.18,0.18,0,0,0,.1-0.02l2.21-1.05A0.234,0.234,0,0,0,1868.15,4073.53Zm7.32,8.77a0.233,0.233,0,0,0-.32.05l-1.47,1.97a0.238,0.238,0,0,0-.05.18,0.226,0.226,0,0,0,.1.15l2.17,1.41a0.22,0.22,0,0,0,.13.04h0.05a0.249,0.249,0,0,0,.15-0.11l1.25-2.08a0.217,0.217,0,0,0-.07-0.31Zm33.19-32.74,1.32,1.91a0.233,0.233,0,0,0,.2.1,0.266,0.266,0,0,0,.12-0.03l2.09-1.26a0.23,0.23,0,0,0,.11-0.15,0.278,0.278,0,0,0-.03-0.18l-1.44-2.12a0.246,0.246,0,0,0-.34-0.06l-1.98,1.47A0.236,0.236,0,0,0,1908.66,4049.56Zm-42.09,19.66-0.46-2.26a0.236,0.236,0,0,0-.27-0.18l-2.41.33a0.247,0.247,0,0,0-.16.1,0.232,0.232,0,0,0-.04.18l0.52,2.5a0.252,0.252,0,0,0,.1.15,0.277,0.277,0,0,0,.13.03h0.05l2.37-.58A0.227,0.227,0,0,0,1866.57,4069.22Zm46.08-11.42,0.45,2.27a0.216,0.216,0,0,0,.22.18h0.04l2.42-.36a0.214,0.214,0,0,0,.16-0.1,0.209,0.209,0,0,0,.04-0.17l-0.51-2.49a0.226,0.226,0,0,0-.1-0.15,0.214,0.214,0,0,0-.19-0.03l-2.35.58A0.234,0.234,0,0,0,1912.65,4057.8Zm-42.1,19.66-1.32-1.92a0.237,0.237,0,0,0-.31-0.07l-2.09,1.23a0.217,0.217,0,0,0-.11.15,0.289,0.289,0,0,0,.03.18l1.43,2.13a0.226,0.226,0,0,0,.15.1h0.04a0.326,0.326,0,0,0,.14-0.04l1.98-1.44A0.229,0.229,0,0,0,1870.55,4077.46Zm31.25-34.05,1.96,1.26a0.22,0.22,0,0,0,.13.04,0.246,0.246,0,0,0,.19-0.09l1.44-1.92a0.238,0.238,0,0,0,.05-0.18,0.226,0.226,0,0,0-.1-0.15l-2.15-1.43a0.267,0.267,0,0,0-.18-0.03,0.23,0.23,0,0,0-.15.11l-1.27,2.07A0.24,0.24,0,0,0,1901.8,4043.41Zm9.27,10.07,0.92,2.12a0.226,0.226,0,0,0,.21.14,0.2,0.2,0,0,0,.08-0.01l2.29-.83a0.2,0.2,0,0,0,.13-0.12,0.191,0.191,0,0,0,0-.18l-0.98-2.34a0.3,0.3,0,0,0-.14-0.13,0.279,0.279,0,0,0-.18.01l-2.22,1.04A0.235,0.235,0,0,0,1911.07,4053.48Zm-25.66,8.3a0.241,0.241,0,0,0-.34,0l-1.43,1.43a0.235,0.235,0,0,0,0,.33l4.67,4.62a0.234,0.234,0,0,0,.17.07,0.2,0.2,0,0,0,.16-0.07l6.89-6.75a0.221,0.221,0,0,0,.02-0.31l-1.46-1.75a0.22,0.22,0,0,0-.16-0.09,0.227,0.227,0,0,0-.18.07l-5.47,5.43Z" transform="translate(-1859.66 -4029)"/>
</svg>
