<svg xmlns="http://www.w3.org/2000/svg" width="68.94" height="60" viewBox="0 0 68.94 60">
  <defs>
    <style>
      .cls-1 {
        fill: #54cff0;
        fill-rule: evenodd;
      }
    </style>
  </defs>
  <path class="cls-1" d="M1533.68,4050.34v-3.17c0-2.61,0-5.31.01-7.97a5.949,5.949,0,0,0-1.24-3.85,6.191,6.191,0,0,0-5.22-2.33h-0.02c-6.87.01-13.85,0-20.6,0h-23.34c-3.98,0-8.1,0-12.15.01-3.79.01-6.35,2.43-6.35,6.04-0.02,9.91-.01,19.98-0.01,29.72v9.18a1.716,1.716,0,0,0,.06.68c0.1,0.25.18,0.5,0.27,0.74a8.345,8.345,0,0,0,.95,2.13,5.71,5.71,0,0,0,5.1,2.34h0.03c5.59-.02,11.28-0.02,16.77-0.02h13.41a1.606,1.606,0,0,1,1.33.55l0.26,0.28a21.566,21.566,0,0,0,2.2,2.18c1.7,1.39,2.3,2.78,1.94,4.52a0.756,0.756,0,0,0,0,.26v0.03a1.314,1.314,0,0,0,1.47,1.37q3.045,0.015,6.08.01c2.07,0,4.14,0,6.17-.01a1.283,1.283,0,0,0,1.45-1.38c0.02-.31.01-0.61,0.01-0.91a7.366,7.366,0,0,1,.03-1.15,4.005,4.005,0,0,1,.46-1.35c0.28-.52.57-1.03,0.86-1.54,0.43-.73.87-1.49,1.24-2.26a0.839,0.839,0,0,1,.9-0.61c0.23,0,.46,0,0.69.01a11.677,11.677,0,0,0,2.77-.19,5.868,5.868,0,0,0,4.47-6.06v-27.25Zm-8.98,20.58a0.66,0.66,0,0,1-.14-0.42c-0.01-3.11-.01-6.75.04-10.41a3.622,3.622,0,0,0,3.74,1.88,3.468,3.468,0,0,0,2.75-2.08c0,0.08.01,0.15,0.01,0.22v2.33c0,4.97.01,10.11,0,15.17a3.4,3.4,0,0,1-3.63,3.69h-1.78v-2.06c0-1.74-.01-3.45,0-5.16A4.219,4.219,0,0,0,1524.7,4070.92Zm4.09-12.44a1,1,0,0,1-.3.69,0.982,0.982,0,0,1-.73.24,0.966,0.966,0,0,1,.07-1.93h0.07a0.92,0.92,0,0,1,.89,1h0Zm2.31-16.42v14.74a3.69,3.69,0,0,0-3.26-1.92h-0.03a3.689,3.689,0,0,0-3.22,1.87v-21.19c0.41,0.03.83,0.04,1.23,0.05a21.124,21.124,0,0,1,3.02.23,2.921,2.921,0,0,1,2.24,2.88C1531.11,4039.83,1531.11,4040.96,1531.1,4042.06Zm-63.76,27.72v-30.3c0-2.62,1.22-3.84,3.84-3.85,0.35,0,.69-0.01,1.04-0.01,0.29,0,.58.01,0.87,0.01h0.76v45.62c-0.34.01-.69,0.01-1.03,0.02a16.723,16.723,0,0,1-2.46-.04,3.2,3.2,0,0,1-3.01-3.44C1467.34,4075.12,1467.34,4072.4,1467.34,4069.78Zm52.34,19.72a4.7,4.7,0,0,1,.02.66,1.927,1.927,0,0,0-.01.24h-9.99c-0.01-.04-0.01-0.07-0.02-0.11a1.34,1.34,0,0,1-.02-0.39,3.851,3.851,0,0,0-1.47-3.65c-1.7-1.6-3.37-3.3-4.98-4.94-0.67-.68-1.34-1.37-2.01-2.04a1.661,1.661,0,0,0-.14-0.13,3.446,3.446,0,0,1-.26-0.28,1.164,1.164,0,0,1-.06-1.71,1.1,1.1,0,0,1,1.64.09c0.35,0.34.69,0.69,1.03,1.04,0.53,0.54,1.09,1.11,1.67,1.63a1.939,1.939,0,0,0,1.43.38,1.123,1.123,0,0,0,.85-1.36v-17.55c0-.17,0-0.34.01-0.51a1.013,1.013,0,0,1,1.01-1.1h0a0.961,0.961,0,0,1,.98,1.1c0.01,1.44.01,2.91,0.01,4.32v7.73a1.979,1.979,0,0,0,.45,1.42,1.041,1.041,0,0,0,.76.3h0a1.351,1.351,0,0,0,1.4-1.37,0.925,0.925,0,0,1,.97-0.88h0a0.914,0.914,0,0,1,.97.88,1.319,1.319,0,0,0,1.32,1.36h0.01a1.306,1.306,0,0,0,1.31-1.36,0.914,0.914,0,0,1,.97-0.88h0.01a0.91,0.91,0,0,1,.96.88,1.335,1.335,0,0,0,1.32,1.37h0.01a1.331,1.331,0,0,0,1.32-1.36,0.9,0.9,0,0,1,1.03-.89,0.869,0.869,0,0,1,.89.94c0,0.6-.01,1.2-0.01,1.8-0.02,2.3-.04,4.68-0.2,7a7.424,7.424,0,0,1-2.17,4.52A3.345,3.345,0,0,0,1519.68,4089.5Zm-14.9-22.71c0,0.22.01,0.44,0.01,0.66a0.864,0.864,0,0,1-.15.01c-0.15.01-.27,0.02-0.39,0.02-1.37,0-2.75,0-4.12.01-3.29,0-6.68.01-10.02-.02a9.051,9.051,0,0,1-6.81-15,8.613,8.613,0,0,1,6.26-3.02q4.9-.075,9.68-0.08c3.17,0,6.28.03,9.31,0.08a8.437,8.437,0,0,1,8.21,5.78,8.681,8.681,0,0,1-2.22,9.75,11.074,11.074,0,0,1-1.77,1.34c-0.27.17-.54,0.35-0.82,0.55,0-.2,0-0.38-0.01-0.56,0-.6-0.01-1.11.04-1.61a0.925,0.925,0,0,1,.46-0.54,6.72,6.72,0,0,0,2.76-7.18,6.527,6.527,0,0,0-5.42-5.41,6.676,6.676,0,0,0-7.03,2.68,6.986,6.986,0,0,0,1.59,9.9,0.9,0.9,0,0,1,.45.89C1504.78,4065.61,1504.78,4066.19,1504.78,4066.79Zm0.07-11.05a4.6,4.6,0,0,1,3.12-1.71,4.4,4.4,0,0,1,3.25,1.04,4.335,4.335,0,0,1,.75,5.87c-0.39-2.46-1.62-3.77-3.57-3.78h-0.03c-1.93,0-3.2,1.31-3.6,3.71A4.291,4.291,0,0,1,1504.85,4055.74Zm17.05,13.99c-0.08.02-.17,0.03-0.25,0.05a4.98,4.98,0,0,0-.84.23,5.273,5.273,0,0,0-.73.4,3.181,3.181,0,0,1-.27.17,3.53,3.53,0,0,0-4.58.02,3.49,3.49,0,0,0-3.23-.7,0.4,0.4,0,0,1-.04-0.27,0.863,0.863,0,0,1,.48-0.3,11.668,11.668,0,0,0,5.51-17.45,11.269,11.269,0,0,0-9.28-5.05c-6.12-.07-12.35-0.04-18.37-0.01H1490a11.632,11.632,0,0,0-7.62,2.92,11.358,11.358,0,0,0-3.78,7.14,11.561,11.561,0,0,0,8.64,12.81,13.3,13.3,0,0,0,3.13.35c3.32,0.03,6.69.02,9.96,0.02h4.4v5.85c-0.95-1.02-2.03-1.91-3.54-1.65a5.075,5.075,0,0,0-2.19.95,2.978,2.978,0,0,0-1.14,3.24,10.348,10.348,0,0,0,1.02,2.12c0.13,0.22.26,0.45,0.38,0.68h-22.72v-45.57h45.36v34.05Zm-24.09-9.99h0.03a0.708,0.708,0,0,0,.14-0.01,1.288,1.288,0,0,0,1.38-1.27,1.258,1.258,0,0,0-1.36-1.29c-1.52-.02-3.02-0.01-4.43,0a1.194,1.194,0,0,0-1.33,1.21,1.177,1.177,0,0,0,.28.91,1.379,1.379,0,0,0,1.02.43c0.29,0.02.58,0.02,0.87,0.02h0.68c0.17-.01.35-0.01,0.53-0.01v0.01h2.19Zm1.3-7.17c-1.06-.01-2.14-0.01-3.2,0a1.256,1.256,0,0,0-1.39,1.26,1.281,1.281,0,0,0,1.34,1.32c0.21,0.01.42,0.01,0.63,0.01h0.52c0.16,0,.33-0.01.5-0.01s0.34,0.01.51,0.01c0.37,0,.75.01,1.13-0.01a1.3,1.3,0,0,0,1.35-1.32A1.261,1.261,0,0,0,1499.11,4052.57Zm-5.45,9.2a15.625,15.625,0,0,0-2.56,0,1.158,1.158,0,0,0-1.15,1.31,1.2,1.2,0,0,0,1.23,1.23c0.15,0,.3.01,0.45,0.01,0.12,0,.24,0,0.36-0.01h0.73c0.28,0,.57.01,0.86-0.01A1.27,1.27,0,0,0,1493.66,4061.77Zm-4.5-4.57a2.325,2.325,0,0,0-.53-0.04c-0.07,0-.15-0.01-0.22-0.01l-0.14.01h-0.45a1.249,1.249,0,0,0-1.32,1.25,1.209,1.209,0,0,0,.28.86,1.437,1.437,0,0,0,.99.45c0.19,0.01.39,0.02,0.6,0.02a4.528,4.528,0,0,0,.82-0.06,1.168,1.168,0,0,0,1.02-1.26A1.2,1.2,0,0,0,1489.16,4057.2Zm0.69-2.1a3.972,3.972,0,0,0,.78.07,5.287,5.287,0,0,0,.8-0.06,1.273,1.273,0,0,0-.16-2.53c-0.14-.01-0.27-0.01-0.4-0.01h-0.38c-0.15,0-.31,0-0.46.01a1.2,1.2,0,0,0-1.23,1.13A1.183,1.183,0,0,0,1489.85,4055.1Zm9.82,6.79a3.967,3.967,0,0,0-2.08.02,1.5,1.5,0,0,0-.71,1.3,1.867,1.867,0,0,0,.91,1.04,0.859,0.859,0,0,0,.58.06,0.57,0.57,0,0,1,.13-0.01h0.1a2.5,2.5,0,0,1,.25.02,2.825,2.825,0,0,0,.29.02,0.58,0.58,0,0,0,.34-0.09,1.927,1.927,0,0,0,.95-1.09A1.465,1.465,0,0,0,1499.67,4061.89Zm-29.05-2.16h0a1.27,1.27,0,0,0,.92-0.39,1.212,1.212,0,0,0,.35-0.91,1.279,1.279,0,0,0-.4-0.92,1.258,1.258,0,0,0-2.13.91,1.3,1.3,0,0,0,.37.94A1.24,1.24,0,0,0,1470.62,4059.73Z" transform="translate(-1464.75 -4033.03)"/>
</svg>
