<svg xmlns="http://www.w3.org/2000/svg" width="59.97" height="60" viewBox="0 0 59.97 60">
  <defs>
    <style>
      .cls-1 {
        fill: #54cff0;
        fill-rule: evenodd;
      }
    </style>
  </defs>
  <path class="cls-1" d="M1334.9,3786.26a1.147,1.147,0,0,0-1.18-1.21,5.458,5.458,0,0,0-1.34.01,1.838,1.838,0,0,1-2.41-1.58,0.728,0.728,0,0,1,.16-0.88c0.57-.54,1.12-1.09,1.66-1.67a1.221,1.221,0,0,0,.15-1.86q-1.755-1.86-3.62-3.61a1.122,1.122,0,0,0-1.64.02,13.439,13.439,0,0,0-1.03.97c-1.21,1.21-1.22,1.23-2.78.52a0.872,0.872,0,0,1-.41-0.62c-0.06-.81-0.01-1.62-0.03-2.43a1.289,1.289,0,0,0-1.3-1.42c-1.64-.03-3.28-0.02-4.92,0a1.234,1.234,0,0,0-1.27,1.29,9.615,9.615,0,0,0,0,1.42c0.13,1.08-.02,1.95-1.32,2.13a0.676,0.676,0,0,0-.24.12,0.634,0.634,0,0,1-.88-0.17c-0.55-.59-1.13-1.16-1.71-1.72a1.19,1.19,0,0,0-1.8-.07q-1.83,1.74-3.57,3.57a1.177,1.177,0,0,0,.04,1.75,10.407,10.407,0,0,0,1.05,1.05c0.83,0.64,1.28,1.34.54,2.34a0.641,0.641,0,0,0-.11.31,0.629,0.629,0,0,1-.73.53c-0.81-.02-1.62-0.01-2.43-0.01a1.217,1.217,0,0,0-1.35,1.33c-0.02,1.59-.02,3.19,0,4.78a1.268,1.268,0,0,0,1.3,1.35,5.4,5.4,0,0,0,1.27,0,1.789,1.789,0,0,1,2.38,1.5,0.8,0.8,0,0,1-.19.93c-0.59.56-1.17,1.13-1.71,1.73a1.218,1.218,0,0,0-.01,1.86c1.12,1.17,2.26,2.32,3.43,3.43a1.256,1.256,0,0,0,1.92-.04,8.634,8.634,0,0,0,1.09-1.09c0.62-.82,1.28-1.11,2.18-0.45a0.965,0.965,0,0,0,.38.14,0.563,0.563,0,0,1,.47.69c-0.02.8-.02,1.61,0,2.42a1.245,1.245,0,0,0,1.39,1.37c0.78,0.01,1.57,0,2.36,0s1.61,0.01,2.42,0a1.243,1.243,0,0,0,1.3-1.19,5.127,5.127,0,0,0,.01-1.41,1.8,1.8,0,0,1,1.54-2.36,0.777,0.777,0,0,1,.89.18c0.55,0.58,1.12,1.16,1.71,1.71a1.206,1.206,0,0,0,1.86.04q1.77-1.7,3.47-3.47a1.2,1.2,0,0,0-.01-1.81,9.442,9.442,0,0,0-1.14-1.14c-0.79-.62-1.15-1.27-0.46-2.18a1.026,1.026,0,0,0,.14-0.38,0.558,0.558,0,0,1,.68-0.47c0.83,0.01,1.67.02,2.5-.01a1.228,1.228,0,0,0,1.3-1.32Q1334.93,3788.72,1334.9,3786.26Zm-2.54,3.34a0.618,0.618,0,0,1-.47.36c-0.67.04-1.35,0-2.02,0.02a1.375,1.375,0,0,0-1.52,1.15c-0.35.94-.74,1.87-1.16,2.78a1.29,1.29,0,0,0,.3,1.86c0.59,0.57,1.22,1.11,1.83,1.66-0.71.68-1.28,1.21-1.92,1.83l-1.61-1.61c-0.79-.78-1.08-0.79-2.08-0.32a28.206,28.206,0,0,1-2.79,1.15,1.322,1.322,0,0,0-1.01,1.33q-0.03,1.08,0,2.16a0.429,0.429,0,0,1-.51.51c-1.98.11-1.98,0.12-1.98-1.86v-0.67a1.29,1.29,0,0,0-1.06-1.5c-1-.39-2-0.77-2.97-1.24a1.329,1.329,0,0,0-1.65.24c-0.5.49-1,.97-1.48,1.48a0.482,0.482,0,0,1-.83.03c-1.4-1.32-1.41-1.31-.05-2.67,0.15-.14.29-0.29,0.43-0.43a1.386,1.386,0,0,0,.32-1.98c-0.41-.91-0.78-1.85-1.14-2.79a1.334,1.334,0,0,0-1.48-1.11c-0.67-.02-1.34-0.03-2.02.01-0.45.02-.56-0.16-0.57-0.59-0.05-1.91-.06-1.91,1.8-1.91h0.41c1.4,0,1.47-.07,1.95-1.42,0.3-.85.68-1.66,1.06-2.47a1.3,1.3,0,0,0-.3-1.9c-0.46-.47-0.91-0.94-1.39-1.38a0.472,0.472,0,0,1,.01-0.83,10.647,10.647,0,0,0,.95-0.95c0.32-.38.56-0.31,0.87,0.02,0.49,0.53,1.02,1.01,1.53,1.53a1.185,1.185,0,0,0,1.47.24c1.06-.46,2.13-0.92,3.22-1.33a1.264,1.264,0,0,0,.92-1.32c-0.01-.67.04-1.35-0.01-2.02-0.05-.57.19-0.71,0.69-0.67a6.491,6.491,0,0,0,1.08,0c0.54-.05.78,0.11,0.73,0.7-0.05.65-.01,1.3,0,1.96a1.36,1.36,0,0,0,1.03,1.39c1.03,0.37,2.04.8,3.03,1.26a1.32,1.32,0,0,0,1.65-.27c0.51-.51,1.03-1,1.53-1.52a0.425,0.425,0,0,1,.72-0.01c1.47,1.33,1.48,1.32.08,2.72-0.17.18-.34,0.36-0.52,0.53a1.359,1.359,0,0,0-.27,1.76c0.46,0.94.83,1.93,1.21,2.91a1.269,1.269,0,0,0,1.48,1.07c0.8,0.01,1.61,0,2.53,0C1332.38,3788.26,1332.4,3788.93,1332.36,3789.6Zm-57.43-34.58h50.04v14.67a1.446,1.446,0,0,0-.04.29,1.265,1.265,0,0,0,2.53,0,1.75,1.75,0,0,0-.04-0.32c0-.11.01-0.22,0.01-0.33v-20.22a3.618,3.618,0,0,0-.02-0.47,3.749,3.749,0,0,0-3.9-3.64q-22.335-.015-44.67,0a3.735,3.735,0,0,0-3.9,3.91c-0.02,1.44-.01,2.88-0.01,4.31v1.8Zm2.54-6.33a1.136,1.136,0,0,1,1.15-1.17,6.105,6.105,0,0,1,.74-0.03H1323c1.59,0,1.93.35,1.93,1.95v3.01h-47.48C1277.45,3751.15,1277.42,3749.92,1277.47,3748.69Zm24.96,19.73c0-2.31.01-4.62,0-6.93a3.719,3.719,0,0,0-3.97-3.96h-19.53a3.721,3.721,0,0,0-4,3.99v6.87a3.824,3.824,0,0,0,4.13,4.11c2.76,0,5.52.09,8.28-.03a4.022,4.022,0,0,1,3.55,1.46c1.3,1.5,2.79,2.85,4.2,4.27a1.364,1.364,0,0,0,1.52.44,1.315,1.315,0,0,0,.83-1.33c0.02-.25.01-0.5,0.01-0.75v-4.06h0.89A3.819,3.819,0,0,0,1302.43,3768.42Zm-2.53.07a1.269,1.269,0,0,1-1.47,1.48c-0.66.01-1.31-.01-1.96,0a1.363,1.363,0,0,0-1.53,1.54c-0.02.88-.02,1.75-0.03,2.63a0.863,0.863,0,0,1-.15.2c-1.22-1.23-2.42-2.4-3.58-3.62a2.382,2.382,0,0,0-1.85-.76c-3.37.02-6.74,0.01-10.1,0.01-1.42,0-1.77-.35-1.77-1.73-0.01-2.22-.01-4.45,0-6.67a1.345,1.345,0,0,1,1.58-1.6q9.63-.015,19.26,0a1.345,1.345,0,0,1,1.6,1.58C1299.91,3763.86,1299.91,3766.18,1299.9,3768.49Zm-20.62,26.49c-1.52,0-1.82-.3-1.82-1.8-0.01-5.74,0-11.49,0-17.24v-0.87h-0.01a1.261,1.261,0,0,0-2.52.07,0.86,0.86,0,0,0,.01.16c0,0.03-.01.06-0.01,0.09q0,9.2.02,18.39a3.637,3.637,0,0,0,.33,1.49,3.779,3.779,0,0,0,3.81,2.22c7.55-.02,15.09-0.01,22.63-0.01,0.22,0,.44-0.02.67-0.04v-2.46h-23.11Zm20.61-9.91h-19.92v2.38h19.92v-2.38Zm-19.92,7.38h14.91v-2.39h-14.91v2.39Zm12.43-12.38h-12.43v2.38h12.43v-2.38Zm7.48,12.36v-2.36h-2.42v2.36h2.42Zm18.53-8.64a4.979,4.979,0,0,0,.39,9.95A4.979,4.979,0,1,0,1318.41,3783.79Zm0.23,7.44a2.458,2.458,0,0,1-2.46-2.49,2.49,2.49,0,1,1,4.98.07A2.451,2.451,0,0,1,1318.64,3791.23Zm-33.68-25.02h12.43v-2.43h-12.43v2.43Zm-4.98.02h2.41v-2.44h-2.41v2.44Zm39.92,3.75a1.26,1.26,0,0,0,2.52,0v-0.7c0-3.35,0-6.69-.01-10.04,0-1.34-.39-1.73-1.72-1.73h-14.01c-1.36,0-1.75.39-1.75,1.78v12.47c0,0.15.01,0.31,0.02,0.47a1.641,1.641,0,0,0-.02.23,1.26,1.26,0,0,0,2.52,0,1.275,1.275,0,0,0-.01-0.2v-12.23h12.49v9.68A1.241,1.241,0,0,0,1319.9,3769.98Z" transform="translate(-1274.94 -3745)"/>
</svg>
