<svg xmlns="http://www.w3.org/2000/svg" width="59" height="60" viewBox="0 0 59 60">
  <defs>
    <style>
      .cls-1 {
        fill: #3652e4;
        fill-rule: evenodd;
      }
    </style>
  </defs>
  <path class="cls-1" d="M1718.26,3755.38a17.17,17.17,0,0,0,1.81-.29,5.154,5.154,0,0,0-.32-10,5.145,5.145,0,0,0-5.65,2.91,5.066,5.066,0,0,0,1.61,6.21,0.6,0.6,0,0,1,.28.73q-0.675,2.88-1.3,5.78a0.722,0.722,0,0,1-.6.59c-0.86.29-1.68,0.7-2.53,1.04a0.782,0.782,0,0,1-.63.04c-2.07-1.41-4.12-2.84-6.2-4.29a3.846,3.846,0,0,0-.13-3.25,3.671,3.671,0,1,0-6.32,3.72,1.374,1.374,0,0,1,.27.9c-0.61,2.27-1.28,4.53-1.94,6.81a18.542,18.542,0,0,0-6.62.81,0.521,0.521,0,0,1-.37-0.01c-1.21-.69-2.42-1.39-3.61-2.08,0.92-3.04.39-5.68-1.95-7.71-2.38-2.05-5.05-2.16-8.09-.64-0.64-.74-1.32-1.56-2.04-2.34-0.54-.58-1.11-1.14-1.7-1.67a0.756,0.756,0,0,1-.2-0.99,3.661,3.661,0,0,0-3.48-4.91,3.536,3.536,0,0,0-3.35,2.24,3.725,3.725,0,0,0,4.38,5.15,0.806,0.806,0,0,1,.64.05c1.32,1.4,2.62,2.83,3.95,4.28a6.95,6.95,0,0,0,1.19,9.41c-1.43,2.44-2.85,4.84-4.25,7.26a1.1,1.1,0,0,1-.98.64,4.53,4.53,0,1,0,1.29,8.95,0.862,0.862,0,0,1,.72.22c1.29,1.37,2.53,2.78,3.83,4.14a0.9,0.9,0,0,1,.17,1.27,5.838,5.838,0,0,0,9.56,6.61,1.245,1.245,0,0,1,1.32-.48c3.72,0.56,7.45,1.07,11.17,1.61,2.07,0.29,4.14.6,6.2,0.89a7.052,7.052,0,1,0,8.47-8c-3.06-.66-7.08.84-8.41,5.52q-8.67-1.23-17.37-2.46a6.01,6.01,0,0,0-2.6-5.79,5.654,5.654,0,0,0-6.27-.18c-0.74-.82-1.46-1.6-2.17-2.39-0.73-.8-1.45-1.6-2.16-2.39a4.629,4.629,0,0,0-.72-6.66c1.46-2.49,2.92-4.99,4.4-7.49a6.788,6.788,0,0,0,6.85-1.65,0.49,0.49,0,0,1,.46-0.09c0.72,0.4,1.42.84,2.15,1.28a7.419,7.419,0,0,0-1.15,1.04,2.426,2.426,0,0,0-.54,1.32q-0.06,7.17,0,14.34a1.74,1.74,0,0,0,.55,1.22,14,14,0,0,0,2.72,1.75,17.23,17.23,0,0,0,9.87,1.19,13.259,13.259,0,0,0,6.66-2.77,1.776,1.776,0,0,0,.71-1.53c-0.02-2.71-.01-5.41-0.01-8.12v-0.82c0.31,0.07.53,0.11,0.74,0.17,2.29,0.59,4.57,1.21,6.87,1.77a1.2,1.2,0,0,1,1.05.98,3.613,3.613,0,0,0,3.58,2.59,3.746,3.746,0,0,0,1.71-6.98,3.5,3.5,0,0,0-4.4.6,1.118,1.118,0,0,1-1.48.39,1.783,1.783,0,0,0-.33-0.09q-3.87-1.02-7.74-2.03v-3a0.75,0.75,0,0,0,0-.42v-0.02h0a1.413,1.413,0,0,0-.58-0.75,18.667,18.667,0,0,0-3.04-1.87,26.043,26.043,0,0,0-3.23-1.09c0.57-2.04,1.16-4.11,1.73-6.13a4.764,4.764,0,0,0,1.38-.21,1.585,1.585,0,0,1,1.82.32c1.96,1.41,3.95,2.78,5.91,4.15-0.08.41-.19,0.76-0.23,1.12a5.082,5.082,0,0,0,9.5,3.08,4.98,4.98,0,0,0-1.18-6.35,1.772,1.772,0,0,1-.73-2.23C1717.61,3758.66,1717.92,3756.99,1718.26,3755.38Zm-49.71-3.59a1.266,1.266,0,0,1-1.23-1.28A1.245,1.245,0,1,1,1668.55,3751.79Zm42.93,41.51a4.605,4.605,0,1,1-4.59,4.6A4.621,4.621,0,0,1,1711.48,3793.3Zm-30.17-3.57a3.349,3.349,0,0,1,3.45,3.41,3.425,3.425,0,1,1-6.85.06A3.358,3.358,0,0,1,1681.31,3789.73Zm-10.78-7.39a2.06,2.06,0,0,1,.03-4.12A2.06,2.06,0,0,1,1670.53,3782.34Zm9.14-15.43a4.415,4.415,0,1,1,4.37-4.45A4.431,4.431,0,0,1,1679.67,3766.91Zm38.33,9.89a1.271,1.271,0,1,1,.1,2.54,1.359,1.359,0,0,1-1.29-1.31A1.234,1.234,0,0,1,1718,3776.8Zm-30.34-3.85a2.88,2.88,0,0,1,.31.1,17.38,17.38,0,0,0,10.95,1.37,14.073,14.073,0,0,0,4.33-1.44v1.73a2.055,2.055,0,0,1-.45.56,6.05,6.05,0,0,1-1.29.73,15.4,15.4,0,0,1-8.74.97,10.636,10.636,0,0,1-4.7-1.79,0.955,0.955,0,0,1-.4-0.56C1687.62,3774.08,1687.66,3773.54,1687.66,3772.95Zm0.21,5.05a18.023,18.023,0,0,0,15.64-.05c0,0.59.03,1.13-.02,1.66a0.955,0.955,0,0,1-.4.56,10.825,10.825,0,0,1-4.95,1.85,15.338,15.338,0,0,1-8.59-1.04,3.418,3.418,0,0,1-.43-0.21C1687.67,3779.99,1687.55,3779.73,1687.87,3778Zm15.62,6.55a1.073,1.073,0,0,1-.45.61,10.82,10.82,0,0,1-4.77,1.78,15.081,15.081,0,0,1-8.79-1.03l-0.24-.12c-1.51-.79-1.65-1.06-1.38-2.85a18.011,18.011,0,0,0,15.65-.05A15.13,15.13,0,0,1,1703.49,3784.55Zm-0.9-14.03c-2.93,2.36-10.37,2.38-13.95.02C1691.83,3768.15,1699.63,3768.15,1702.59,3770.52Zm-1.26-12.63a1.263,1.263,0,0,1-1.23-1.34,1.215,1.215,0,0,1,1.23-1.25,1.36,1.36,0,0,1,1.32,1.28A1.41,1.41,0,0,1,1701.33,3757.89Zm16.09,8.54a2.693,2.693,0,0,1-2.68,2.61,2.656,2.656,0,0,1,.02-5.31A2.706,2.706,0,0,1,1717.42,3766.43Zm-1.32-16.29a2.635,2.635,0,1,1,5.27,0A2.635,2.635,0,1,1,1716.1,3750.14Z" transform="translate(-1664.81 -3745)"/>
</svg>
